<?xml version="1.0" encoding="UTF-8"?>
<svg version="1.1" xmlns="http://www.w3.org/2000/svg" width="128" height="128">
<path d="M0 0 C42.24 0 84.48 0 128 0 C128 42.24 128 84.48 128 128 C85.76 128 43.52 128 0 128 C0 85.76 0 43.52 0 0 Z " fill="#292526" transform="translate(0,0)"/>
<path d="M0 0 C9.16304604 -0.09321415 18.32592561 -0.16402311 27.4893446 -0.20724869 C31.74559114 -0.22800844 36.00151021 -0.25610982 40.25756836 -0.30175781 C44.37490815 -0.34563508 48.49193556 -0.36922409 52.60949135 -0.37950897 C54.17017844 -0.38682606 55.73085096 -0.40111157 57.29140282 -0.42292023 C69.05059862 -0.58052408 81.60458217 0.01389485 91 8 C97.87997232 15.19269834 98.4583606 21.70647888 98.31640625 31.359375 C97.77691281 37.56687973 95.60882343 41.03366025 91.75 45.75 C86.48277505 50.05954769 80.21094508 52.35099451 74 55 C74.72703125 56.02996094 75.4540625 57.05992188 76.203125 58.12109375 C76.68322021 58.80171875 77.16331543 59.48234375 77.65795898 60.18359375 C78.72852671 61.69923265 79.80098841 63.21353535 80.87524414 64.7265625 C83.72659503 68.74828429 86.54285787 72.78715712 89.29296875 76.87890625 C89.82051758 77.65371338 90.34806641 78.42852051 90.89160156 79.22680664 C91.90662209 80.7193613 92.91030822 82.2196999 93.90136719 83.72827148 C96.60182722 87.8016918 96.60182722 87.8016918 100.84765625 89.96875 C101.55792969 89.9790625 102.26820312 89.989375 103 90 C103 91.32 103 92.64 103 94 C91.78 94 80.56 94 69 94 C69 92.68 69 91.36 69 90 C69.99 89.67 70.98 89.34 72 89 C70.69134801 85.41555193 69.12346215 82.49172562 66.91796875 79.3828125 C66.31533203 78.52816406 65.71269531 77.67351562 65.09179688 76.79296875 C64.46337891 75.91253906 63.83496094 75.03210938 63.1875 74.125 C62.57068359 73.25230469 61.95386719 72.37960938 61.31835938 71.48046875 C57.90815751 66.65690103 57.90815751 66.65690103 54.43603516 61.87792969 C51 57.20046484 51 57.20046484 51 55 C42.42 55 33.84 55 25 55 C25.33 66.22 25.66 77.44 26 89 C27.65 89.33 29.3 89.66 31 90 C31 91.32 31 92.64 31 94 C20.44 94 9.88 94 -1 94 C-1 92.68 -1 91.36 -1 90 C0.98 89.505 0.98 89.505 3 89 C3.33 60.95 3.66 32.9 4 4 C2.68 3.67 1.36 3.34 0 3 C0 2.01 0 1.02 0 0 Z " fill="#F9F9F9" transform="translate(13,17)"/>
<path d="M0 0 C5.37197463 -0.09235486 10.74114217 -0.17182946 16.11328125 -0.21972656 C17.93661892 -0.23971364 19.75989356 -0.26691286 21.58300781 -0.30175781 C43.5050641 -0.70994506 43.5050641 -0.70994506 51.625 6.25 C53.4663755 9.932751 53.99208504 13.03165985 53 17 C50.83794601 20.79099878 48.52021491 23.34999332 44.47851562 25.078125 C40.05109697 26.25147795 36.00272789 26.24964506 31.4453125 26.1953125 C30.54376434 26.1924826 29.64221619 26.18965271 28.71334839 26.18673706 C25.85042724 26.17559439 22.98782566 26.1505008 20.125 26.125 C18.17708787 26.11496255 16.22917081 26.10583804 14.28125 26.09765625 C9.52061291 26.07738096 4.76066172 26.03822119 0 26 C0 17.42 0 8.84 0 0 Z " fill="#2B2728" transform="translate(38,32)"/>
</svg>
